<svg xmlns="http://www.w3.org/2000/svg" width="24" height="24" viewBox="0 0 24 24">
    <g fill="none" fill-rule="nonzero">
        <path fill="#3C5A99" d="M19.963 20.952a.989.989 0 0 0 .989-.989V4.03a.988.988 0 0 0-.989-.988H4.03a.988.988 0 0 0-.988.988v15.934c0 .546.442.989.988.989h15.934z"/>
        <path fill="#FFF" d="M15.4 20.952v-6.936h2.327l.349-2.703h-2.677V9.587c0-.783.217-1.316 1.34-1.316h1.431V5.852a19.135 19.135 0 0 0-2.086-.107c-2.063 0-3.476 1.26-3.476 3.573v1.994h-2.334v2.703h2.334v6.936h2.791z"/>
    </g>
</svg>
