<svg width="16" height="16" viewBox="0 0 16 16" fill="none" xmlns="http://www.w3.org/2000/svg">
<path d="M15.3333 7.99666L13.7067 6.14333L13.9333 3.69L11.5267 3.14333L10.2667 1.02333L8 1.99666L5.73334 1.02333L4.47334 3.14333L2.06667 3.68333L2.29334 6.13666L0.666672 7.99666L2.29334 9.85L2.06667 12.31L4.47334 12.8567L5.73334 14.9767L8 13.9967L10.2667 14.97L11.5267 12.85L13.9333 12.3033L13.7067 9.85L15.3333 7.99666ZM12.3267 9.40333L12.5 11.2633L10.6733 11.6767L9.72 13.2833L8 12.5433L6.28 13.2833L5.32667 11.6767L3.50001 11.2633L3.67334 9.39666L2.44001 7.99666L3.67334 6.58333L3.50001 4.73L5.32667 4.32333L6.28 2.71666L8 3.45L9.72 2.71L10.6733 4.31666L12.5 4.73L12.3267 6.59L13.56 7.99666L12.3267 9.40333ZM7.33334 9.99666H8.66667V11.33H7.33334V9.99666ZM7.33334 4.66333H8.66667V8.66333H7.33334V4.66333Z" fill="#00B591"/>
</svg>
