<svg xmlns="http://www.w3.org/2000/svg" width="24" height="24" viewBox="0 0 24 24">
    <path fill="#1DA1F2" fill-rule="nonzero" d="M8.315 20.212c7.497 0 11.597-6.211 11.597-11.597 0-.177-.004-.352-.012-.527a8.29 8.29 0 0 0 2.034-2.11 8.128 8.128 0 0 1-2.341.64 4.09 4.09 0 0 0 1.792-2.254 8.175 8.175 0 0 1-2.588.99 4.077 4.077 0 0 0-6.946 3.717A11.574 11.574 0 0 1 3.45 4.812a4.065 4.065 0 0 0-.552 2.049c0 1.414.72 2.662 1.814 3.393a4.046 4.046 0 0 1-1.846-.51v.052a4.077 4.077 0 0 0 3.27 3.996 4.081 4.081 0 0 1-1.841.07 4.08 4.08 0 0 0 3.807 2.83 8.177 8.177 0 0 1-5.062 1.745c-.329 0-.653-.018-.972-.056a11.538 11.538 0 0 0 6.248 1.83"/>
</svg>
